<svg xmlns="http://www.w3.org/2000/svg" xmlns:xlink="http://www.w3.org/1999/xlink">
  <symbol id="nico" viewBox="0 -960 960 960">
    <path d="M360-390q-21 0-35.5-14.5T310-440q0-21 14.5-35.5T360-490q21 0 35.5 14.5T410-440q0 21-14.5 35.5T360-390Zm240 0q-21 0-35.5-14.5T550-440q0-21 14.5-35.5T600-490q21 0 35.5 14.5T650-440q0 21-14.5 35.5T600-390ZM480-160q134 0 227-93t93-227q0-24-3-46.5T786-570q-21 5-42 7.5t-44 2.5q-91 0-172-39T390-708q-32 78-91.5 135.5T160-486v6q0 134 93 227t227 93Zm.134 40q-74.673 0-140.41-28.339-65.737-28.34-114.365-76.922-48.627-48.582-76.993-114.257Q120-405.194 120-479.866q0-74.673 28.339-140.41 28.34-65.737 76.922-114.365 48.582-48.627 114.257-76.993Q405.194-840 479.866-840q74.673 0 140.41 28.339 65.737 28.34 114.365 76.922 48.627 48.582 76.993 114.257Q840-554.806 840-480.134q0 74.673-28.339 140.41-28.34 65.737-76.922 114.365-48.582 48.627-114.257 76.993Q554.806-120 480.134-120Zm-91.826-667.308q48.923 97.692 138.231 142.5Q615.846-600 700-600q18.615 0 36.615-1.885 18-1.884 35.846-6.192-38.153-89.231-118.23-140.577Q574.154-800 480-800q-26.308 0-48.154 3.038-21.846 3.039-43.538 9.654ZM165.462-531.77q61.769-27.461 125.153-89.999Q354-684.308 364.538-779q-80.23 30.539-132.846 96.154-52.615 65.615-66.23 151.076Zm222.846-255.538ZM364.538-779Z"/>
  </symbol>

  <symbol id="logo" viewBox="0 0 120 15">
    <path
      d="M13.8452 2.25503L15.6744 2.47148C16.4944 2.56425 16.5891 3.24452 16.5891 3.6465V5.74916H8.16837V3.6465C8.16837 3.2136 8.26299 2.53333 9.08298 2.47148L10.9122 2.25503V0.461588H0V2.25503L1.82921 2.47148C2.6492 2.56425 2.74382 3.24452 2.74382 3.6465V10.5729C2.74382 11.0058 2.6492 11.6861 1.82921 11.7479L0 11.9644V13.7578H10.8807V11.9644L9.08298 11.7788C8.26299 11.6861 8.16837 11.0058 8.16837 10.6038V8.50117H16.5575V10.6038C16.5575 11.0367 16.4629 11.717 15.6429 11.7788L13.8137 11.9953V13.7887H24.6944V11.9953L22.8651 11.7788C22.0451 11.6861 21.9505 11.0058 21.9505 10.6038V3.67742C21.9505 3.24452 22.0451 2.56425 22.8651 2.5024L24.6944 2.28595V0.461588H13.8452V2.25503Z"
    ></path>
    <path
      d="M86.4775 0.461588H73.0423V2.25503L74.6507 2.40964C75.2184 2.47148 75.5968 2.71886 75.5968 3.49189V10.5729C75.5968 11.0058 75.5022 11.6861 74.6822 11.7479L72.853 11.9644V13.7578H86.4775C91.3344 13.7578 95.3713 11.8407 95.3713 7.07878C95.3713 2.37872 91.3659 0.461588 86.4775 0.461588ZM85.4998 11.2532H80.9268V3.02807H85.4998C88.1806 3.02807 89.0952 4.29585 89.0952 7.14062C89.0952 9.9854 88.1806 11.2532 85.4998 11.2532Z"
    ></path>
    <path
      d="M118.265 11.8098C117.414 11.717 117.13 11.1604 116.878 10.7584C110.57 1.35831 110.57 1.35831 110.57 1.35831C110.129 0.678039 109.782 0.461588 109.119 0.461588H98.8064V2.25503L101.266 2.53333C101.613 2.56425 102.086 3.02807 101.708 3.6465L97.0718 11.0676C96.8826 11.3769 96.6618 11.717 96.1256 11.7788L94.2964 11.9953V13.7887H103.001V11.9953L101.487 11.8407C100.856 11.7788 100.509 11.3459 100.825 10.8203L101.519 9.7071H109.876L110.507 10.6347C111.043 11.4387 110.381 11.7788 109.782 11.8407L108.236 11.9953V13.7887H120V11.9953L118.265 11.8098ZM103.001 7.35707L105.587 3.24452L108.331 7.35707H103.001Z"
    ></path>
    <path
      d="M63.3024 2.25503L65.1317 2.47148C65.9516 2.56425 66.0463 3.24452 66.0463 3.6465V10.3565L58.8556 1.01817C58.5402 0.585274 58.2563 0.461588 57.4679 0.461588C56.9633 0.461588 48.1326 0.461588 48.1326 0.461588V2.25503L49.9618 2.47148C50.7818 2.56425 50.8764 3.24452 50.8764 3.6465V10.5729C50.8764 11.0058 50.7818 11.6861 49.9618 11.7479L48.1326 11.9644V13.7578H56.8371V11.9644L55.0079 11.7479C54.1879 11.6552 54.0933 10.9749 54.0933 10.5729V3.92479L61.284 13.2322C61.5994 13.6651 61.8832 13.7887 62.6717 13.7887C62.7032 13.7887 62.7348 13.7887 62.7348 13.7887C63.0817 13.7887 64.4378 13.7887 69.2947 13.7887V3.67742C69.2947 3.24452 69.3893 2.56425 70.2093 2.5024L72.0385 2.28595V0.461588H63.334V2.25503H63.3024Z"
    ></path>
    <path
      d="M36.3988 0C27.5366 0 25.2658 3.80334 25.2658 7.14286C25.2658 10.4824 27.5366 14.2857 36.3988 14.2857C45.261 14.2857 47.5317 10.4824 47.5317 7.14286C47.5317 3.80334 45.261 0 36.3988 0ZM36.3988 11.7192C32.9611 11.7192 31.5419 10.2968 31.5419 7.14286C31.5419 3.95795 32.9611 2.56648 36.3988 2.56648C39.8364 2.56648 41.2557 3.98887 41.2557 7.14286C41.2557 10.2968 39.8364 11.7192 36.3988 11.7192Z"
    ></path>
  </symbol>
</svg>
